<svg width="147" height="147" viewBox="0 0 147 147" fill="none" xmlns="http://www.w3.org/2000/svg">
<g clip-path="url(#clip0_11_1306)">
<g clip-path="url(#clip1_11_1306)">
<mask id="mask0_11_1306" style="mask-type:luminance" maskUnits="userSpaceOnUse" x="-84" y="-77" width="150" height="300">
<path d="M66 -77H-84V223H66V-77Z" fill="white"/>
</mask>
<g mask="url(#mask0_11_1306)">
<path d="M1.5 139C54.2625 94.951 77.997 66.6145 103.335 5.5C98.1885 61.4785 102.774 91.105 132 139C85.8585 109.526 56.7135 113.033 1.5 139Z" fill="#FFC157"/>
</g>
<mask id="mask1_11_1306" style="mask-type:luminance" maskUnits="userSpaceOnUse" x="81" y="-77" width="150" height="300">
<path d="M231 -77H81V223H231V-77Z" fill="white"/>
</mask>
<g mask="url(#mask1_11_1306)">
<path d="M16.5 139C69.2625 94.951 92.997 66.6145 118.335 5.5C113.188 61.4785 117.774 91.105 147 139C100.859 109.526 71.7135 113.033 16.5 139Z" fill="#276999"/>
</g>
</g>
</g>
<defs>
<clipPath id="clip0_11_1306">
<rect width="147" height="147" fill="white"/>
</clipPath>
<clipPath id="clip1_11_1306">
<rect width="315" height="300" fill="white" transform="translate(-84 -77)"/>
</clipPath>
</defs>
</svg>
